<?xml version="1.0" standalone="no"?>
<!DOCTYPE svg PUBLIC "-//W3C//DTD SVG 20010904//EN"
 "http://www.w3.org/TR/2001/REC-SVG-20010904/DTD/svg10.dtd">
<svg version="1.0" xmlns="http://www.w3.org/2000/svg"
 width="612.000000pt" height="408.000000pt" viewBox="0 0 612.000000 408.000000"
 preserveAspectRatio="xMidYMid meet">

<g transform="translate(0.000000,408.000000) scale(0.100000,-0.100000)"
fill="#000000" stroke="none">
<path d="M1510 2282 l0 -377 78 1 77 0 5 125 5 124 135 6 c176 7 231 31 286
125 22 37 27 58 27 114 0 83 -27 145 -84 193 -66 57 -115 67 -335 67 l-194 0
0 -378z m421 200 c55 -61 30 -149 -49 -172 -20 -6 -75 -10 -122 -8 l-85 3 -3
108 -3 109 116 -4 117 -3 29 -33z"/>
<path d="M2290 2285 l0 -375 23 -1 c84 -5 124 -5 135 -1 9 3 12 38 12 128 l0
124 73 0 72 -1 75 -124 c63 -105 79 -125 100 -126 79 -2 162 -1 166 3 2 3 -8
22 -22 44 -15 21 -53 80 -84 130 l-58 92 43 30 c24 17 56 52 71 78 24 41 28
59 28 119 0 84 -23 136 -84 187 -68 59 -115 68 -346 68 l-204 0 0 -375z m410
217 c44 -22 62 -56 56 -106 -8 -71 -29 -81 -171 -84 l-125 -4 0 106 0 106 103
0 c77 0 110 -4 137 -18z"/>
<path d="M3420 2651 c0 -5 -9 -8 -20 -6 -36 7 -108 -26 -165 -76 -31 -27 -53
-49 -49 -49 4 0 -5 -14 -22 -32 -16 -17 -23 -28 -16 -24 6 4 12 3 12 -2 0 -6
-6 -12 -14 -15 -23 -9 -47 -99 -45 -173 1 -38 4 -73 7 -79 4 -5 7 -17 9 -25 5
-32 32 -86 57 -113 14 -15 22 -27 19 -27 -11 0 49 -51 91 -77 62 -40 216 -70
216 -43 0 6 9 6 24 0 17 -6 26 -5 30 3 3 9 5 9 5 0 1 -15 71 5 89 27 8 8 11 9
7 3 -9 -19 12 -16 33 5 10 10 24 16 31 14 7 -2 11 3 9 13 -2 10 4 20 12 22 13
4 13 3 0 -6 -8 -6 -10 -11 -4 -11 12 0 44 32 44 44 0 4 -5 4 -12 0 -7 -4 -8
-3 -4 4 4 6 12 9 20 6 16 -6 58 55 82 119 15 42 15 50 3 58 -10 6 -10 9 -1 9
15 0 17 91 1 107 -8 8 -8 13 0 17 14 9 14 36 0 36 -5 0 -7 -6 -3 -12 4 -7 3
-9 -1 -5 -14 12 -15 38 -2 30 7 -4 6 1 -2 10 -7 9 -11 17 -7 17 4 0 -3 18 -14
40 -12 23 -25 38 -30 35 -5 -3 -7 0 -5 8 3 7 -5 22 -17 33 -18 15 -20 16 -9 1
8 -9 11 -20 7 -24 -3 -3 -6 -1 -6 6 0 7 -4 10 -8 7 -4 -2 -9 5 -9 16 -2 25
-23 50 -23 27 -1 -10 -3 -9 -11 4 -6 9 -15 15 -20 11 -5 -3 -8 0 -7 8 2 7 -5
12 -14 12 -10 -1 -16 3 -15 8 1 6 -4 13 -12 16 -9 3 -11 0 -7 -9 4 -8 1 -6 -8
5 -8 10 -19 15 -25 11 -6 -3 -11 -1 -11 6 0 6 -8 9 -20 6 -10 -3 -21 0 -23 7
-3 8 -12 8 -35 -1 -18 -6 -32 -8 -32 -4 0 4 -18 8 -40 9 -22 2 -40 -2 -40 -7z
m-105 -59 c-3 -3 -11 0 -18 7 -9 10 -8 11 6 5 10 -3 15 -9 12 -12z m310 -52
c13 -6 15 -9 5 -9 -8 0 -22 4 -30 9 -18 12 -2 12 25 0z m49 -16 c3 -8 2 -12
-4 -9 -6 3 -10 10 -10 16 0 14 7 11 14 -7z m-88 -19 c19 -8 37 -14 39 -15 10
0 41 -37 70 -82 17 -27 32 -48 35 -48 8 0 3 -147 -5 -161 -5 -7 -4 -10 3 -5 6
3 14 1 18 -5 4 -7 3 -9 -4 -5 -6 3 -20 -4 -31 -16 -23 -24 -28 -44 -9 -32 7 4
8 3 4 -4 -4 -7 -11 -12 -17 -12 -12 0 -96 -65 -120 -93 -11 -13 -17 -16 -14
-6 5 13 -5 16 -61 18 -37 1 -76 7 -86 12 -10 5 -18 6 -18 2 0 -4 -6 1 -13 11
-7 9 -22 18 -34 19 -12 0 -20 5 -17 9 3 4 -5 17 -18 30 -12 12 -23 29 -25 38
-1 8 -7 16 -13 18 -5 2 -8 8 -4 13 3 5 1 9 -4 9 -6 0 -10 26 -10 58 -1 81 -1
80 -14 85 -7 2 -5 3 5 1 14 -2 16 2 11 18 -4 15 -3 18 7 13 9 -6 11 -3 6 8 -4
10 -2 16 6 14 7 -1 11 8 11 20 -1 12 3 21 9 20 6 -1 11 5 12 13 0 8 5 15 10
15 14 0 56 31 50 36 -2 3 10 6 27 7 18 2 34 5 37 7 10 11 124 4 157 -10z m72
-10 c-3 -3 -9 2 -12 12 -6 14 -5 15 5 6 7 -7 10 -15 7 -18z m78 -72 c24 -50
25 -63 7 -56 -12 5 -12 7 -1 14 11 8 5 13 -13 11 -4 -1 -5 7 -2 17 3 10 0 22
-6 25 -6 4 -11 11 -11 17 0 17 8 9 26 -28z m-21 -3 c3 -5 1 -10 -4 -10 -6 0
-11 5 -11 10 0 6 2 10 4 10 3 0 8 -4 11 -10z m36 -133 c-10 -9 -11 -8 -5 6 3
10 9 15 12 12 3 -3 0 -11 -7 -18z m-520 -70 c-10 -9 -11 -8 -5 6 3 10 9 15 12
12 3 -3 0 -11 -7 -18z m627 -62 c-3 -3 -9 2 -12 12 -6 14 -5 15 5 6 7 -7 10
-15 7 -18z m-690 -50 c-3 -3 -9 2 -12 12 -6 14 -5 15 5 6 7 -7 10 -15 7 -18z
m142 1 c0 -2 -8 -10 -17 -17 -16 -13 -17 -12 -4 4 13 16 21 21 21 13z m380 -6
c0 -5 -2 -10 -4 -10 -3 0 -8 5 -11 10 -3 6 -1 10 4 10 6 0 11 -4 11 -10z m-67
-45 c-3 -9 -8 -14 -10 -11 -3 3 -2 9 2 15 9 16 15 13 8 -4z m-13 -29 c0 -2 -7
-6 -15 -10 -8 -3 -15 -1 -15 4 0 6 7 10 15 10 8 0 15 -2 15 -4z m80 -41 c-7
-8 -20 -15 -29 -15 -11 0 -8 5 9 14 33 19 35 19 20 1z m-400 -8 c0 4 5 0 11
-10 6 -9 15 -14 21 -11 7 4 8 2 4 -4 -4 -8 -18 -5 -41 9 -37 22 -49 37 -15 19
11 -6 20 -7 20 -3z m64 -33 c3 -8 2 -12 -4 -9 -6 3 -10 10 -10 16 0 14 7 11
14 -7z"/>
<path d="M4060 2285 l0 -375 23 -4 c36 -8 477 -2 477 7 0 4 0 34 0 67 l0 60
-170 0 -170 0 0 310 0 310 -80 0 -80 0 0 -375z"/>
<path d="M3112 1683 l-2 -53 38 2 c36 1 36 1 5 5 -30 4 -32 7 -36 51 l-3 47
-2 -52z"/>
<path d="M3874 1710 c0 -13 4 -16 10 -10 7 7 7 13 0 20 -6 6 -10 3 -10 -10z"/>
<path d="M4296 1723 c-3 -3 -5 -27 -4 -52 l1 -46 4 40 c3 22 9 43 15 46 6 4 7
9 0 12 -5 4 -12 4 -16 0z"/>
<path d="M4473 1698 c0 -21 5 -34 9 -30 4 4 3 21 -2 37 -9 30 -9 30 -7 -7z"/>
<path d="M1743 1702 c1 -14 5 -18 11 -12 7 7 6 14 -1 21 -9 9 -12 7 -10 -9z"/>
<path d="M2771 1688 c2 -31 2 -31 6 -5 3 16 9 25 15 21 7 -4 8 -2 4 4 -14 22
-26 12 -25 -20z"/>
<path d="M2983 1706 c9 -10 17 -24 17 -31 0 -8 5 -17 10 -20 6 -4 5 8 -3 26
-7 18 -19 35 -27 37 -10 4 -10 0 3 -12z"/>
<path d="M4052 1678 c-2 -44 0 -48 21 -47 16 1 17 3 5 6 -12 3 -18 17 -21 46
l-4 42 -1 -47z"/>
<path d="M4380 1690 c0 -32 -8 -37 -29 -17 -11 10 -11 8 0 -10 7 -12 16 -20
20 -17 4 2 10 -2 12 -8 3 -7 6 8 6 35 1 26 -1 47 -4 47 -3 0 -5 -13 -5 -30z"/>
<path d="M1521 1693 c-1 -19 4 -23 27 -22 22 1 23 2 5 6 -12 2 -24 12 -26 21
-3 12 -5 10 -6 -5z"/>
<path d="M2472 1680 c0 -19 2 -27 5 -17 2 9 2 25 0 35 -3 9 -5 1 -5 -18z"/>
<path d="M3260 1673 l0 -43 38 2 37 1 -34 4 c-29 4 -32 8 -29 28 3 13 1 30 -3
37 -6 8 -9 -3 -9 -29z"/>
<path d="M1926 1687 c3 -10 9 -15 12 -12 3 3 0 11 -7 18 -10 9 -11 8 -5 -6z"/>
<path d="M2033 1665 c0 -22 2 -30 4 -17 2 12 2 30 0 40 -3 9 -5 -1 -4 -23z"/>
<path d="M2160 1684 c0 -8 5 -12 10 -9 6 4 8 11 5 16 -9 14 -15 11 -15 -7z"/>
<path d="M2581 1684 c0 -11 3 -14 6 -6 3 7 2 16 -1 19 -3 4 -6 -2 -5 -13z"/>
<path d="M2805 1680 c3 -5 8 -10 11 -10 2 0 4 5 4 10 0 6 -5 10 -11 10 -5 0
-7 -4 -4 -10z"/>
<path d="M2851 1674 c0 -11 3 -14 6 -6 3 7 2 16 -1 19 -3 4 -6 -2 -5 -13z"/>
<path d="M1680 1670 c0 -5 7 -7 15 -3 9 3 25 -3 37 -13 21 -19 21 -19 7 4 -14
22 -59 31 -59 12z"/>
<path d="M2360 1676 c0 -2 7 -7 16 -10 8 -3 12 -2 9 4 -6 10 -25 14 -25 6z"/>
<path d="M1852 1644 c9 -9 21 -15 27 -13 6 2 -2 10 -17 17 -25 11 -25 11 -10
-4z"/>
<path d="M2160 1648 c0 -15 8 -18 43 -16 40 1 40 1 7 5 -19 3 -38 10 -42 16
-5 8 -8 6 -8 -5z"/>
<path d="M2830 1656 c0 -2 8 -10 18 -17 15 -13 16 -12 3 4 -13 16 -21 21 -21
13z"/>
<path d="M2355 1640 l-30 -8 27 -1 c15 0 30 4 33 9 3 6 5 9 3 9 -2 -1 -16 -5
-33 -9z"/>
<path d="M3698 1638 c6 -6 18 -8 28 -6 14 3 12 5 -9 10 -19 3 -25 2 -19 -4z"/>
<path d="M4470 1638 c0 -5 18 -8 40 -8 22 0 40 2 40 4 0 2 -18 6 -40 8 -22 2
-40 0 -40 -4z"/>
<path d="M2618 1633 c6 -2 18 -2 25 0 6 3 1 5 -13 5 -14 0 -19 -2 -12 -5z"/>
<path d="M3428 1633 c6 -2 18 -2 25 0 6 3 1 5 -13 5 -14 0 -19 -2 -12 -5z"/>
</g>
</svg>
